<svg xmlns="http://www.w3.org/2000/svg" fill="none" viewBox="0 0 200 200" height="200" width="200">
<path fill="white" d="M50.3195 130.503C47.1348 130.503 44.2686 127.637 44.2686 124.452V33.051C44.2686 29.8663 47.1348 27 50.3195 27C53.8227 27 56.3705 29.8663 56.3705 33.051V124.452C56.3705 127.637 53.5042 130.503 50.3195 130.503Z"></path>
<path fill="white" d="M136.945 130.503C133.441 130.503 130.894 127.637 130.894 124.452V33.051C130.894 29.8663 133.76 27 136.945 27C140.129 27 142.995 29.8663 142.995 33.051V124.452C142.995 127.637 140.129 130.503 136.945 130.503Z"></path>
<path fill="white" d="M71.9748 104.388C68.4716 104.388 65.9238 101.522 65.9238 98.3375V47.3821C65.9238 44.1974 68.7901 41.3311 71.9748 41.3311C75.1595 41.3311 78.0257 44.1974 78.0257 47.3821V98.3375C78.0257 101.841 75.1595 104.388 71.9748 104.388Z"></path>
<path fill="white" d="M115.289 104.388C111.786 104.388 109.238 101.522 109.238 98.3375V47.3821C109.238 44.1974 112.105 41.3311 115.289 41.3311C118.474 41.3311 121.34 44.1974 121.34 47.3821V98.3375C121.659 101.841 118.792 104.388 115.289 104.388Z"></path>
<path fill="white" d="M93.9514 96.4274C90.7666 96.4274 87.9004 93.5613 87.9004 90.3766V67.128C87.9004 63.9433 90.7666 61.0771 93.9514 61.0771C97.4545 61.0771 100.002 63.9433 100.002 67.128V90.3766C100.002 93.5613 97.1361 96.4274 93.9514 96.4274Z"></path>
<path fill="white" d="M151.593 35.9172C149.046 35.9172 147.135 34.0064 147.135 31.4587C147.135 28.9109 149.046 27 151.593 27C154.141 27 156.052 28.9109 156.052 31.4587C156.052 34.0064 153.823 35.9172 151.593 35.9172ZM151.593 27.3184C149.364 27.3184 147.453 29.2294 147.453 31.4587C147.453 33.688 149.364 35.5988 151.593 35.5988C153.823 35.5988 155.733 33.688 155.733 31.4587C155.415 29.2294 153.823 27.3184 151.593 27.3184Z"></path>
<path fill="white" d="M150.638 33.6885C150.638 34.0069 150.319 34.0069 150.638 33.6885C150.319 34.0069 150.319 33.6885 150.319 33.6885V29.5484C150.319 29.5484 150.319 29.23 150.638 29.23H151.912C152.549 29.23 153.186 29.8668 153.186 30.5037C153.186 31.1407 152.549 31.7777 151.912 31.7777L153.186 33.3701C153.186 33.3701 153.186 33.6885 152.867 33.6885C152.867 33.6885 152.867 33.6885 152.549 33.6885L151.275 31.7777H150.638V33.6885V33.6885ZM150.638 31.4593H151.912C152.23 31.4593 152.867 31.1407 152.867 30.5037C152.867 29.8668 152.549 29.5484 151.912 29.5484H150.638V31.4593Z"></path>
<path fill="white" d="M9.55414 154.071C9.55414 152.479 8.9172 151.842 7.96178 151.842C7.64331 151.842 7.32485 151.841 6.68791 152.16C6.36943 152.478 6.05096 152.797 5.41402 153.115V164.58C5.09554 164.58 4.4586 164.58 4.14013 164.899C3.82165 164.899 3.18471 164.899 2.54777 164.899C1.91083 164.899 1.59236 164.899 1.27389 164.899C0.636948 164.899 0.318471 164.899 0 164.58V147.383L0.318479 147.064H2.2293C3.82166 147.064 4.77708 147.701 5.09555 149.294C6.68791 147.701 8.28026 147.064 9.87262 147.064C11.7834 147.064 13.0573 148.02 14.0127 149.612C15.9236 148.02 17.5159 147.064 19.1083 147.064C20.7006 147.064 21.9745 147.701 22.6115 148.657C23.5669 149.612 23.8854 150.886 23.8854 152.797V160.44C23.8854 162.033 24.2038 162.988 24.8408 163.943C23.8853 164.58 22.9299 165.217 21.6561 165.217C20.3822 165.217 19.7452 164.899 19.1083 164.262C18.7898 163.625 18.4713 162.988 18.4713 161.714V154.389C18.4713 152.797 17.8344 152.16 16.879 152.16C16.242 152.16 15.6051 152.478 14.6497 153.434V164.899C14.3312 164.899 13.6943 164.899 13.3758 165.217C13.0573 165.217 12.4204 165.217 12.1019 165.217C11.465 165.217 11.1465 165.217 10.5096 165.217C9.87261 165.217 9.55415 165.217 9.23567 164.899V154.071H9.55414Z"></path>
<path fill="white" d="M41.7208 157.574H32.8035C32.8035 158.529 33.122 159.485 33.759 160.122C34.3959 160.759 35.0329 161.077 36.3067 161.077C36.9437 161.077 37.5806 161.077 38.2176 160.759C38.8545 160.44 39.8099 160.44 40.7653 160.122C41.4023 160.759 42.0392 162.033 42.0392 163.306C40.1284 164.58 37.8991 165.217 35.3513 165.217C33.759 165.217 32.8035 164.899 31.8481 164.58C30.8927 164.262 29.9373 163.306 29.3004 162.669C28.6634 161.714 28.3449 160.759 28.0265 159.803C27.708 158.529 27.708 157.574 27.708 155.982C27.708 154.708 27.708 153.434 28.0265 152.479C28.3449 151.523 28.6634 150.568 29.3004 149.612C29.9373 148.657 30.8927 148.02 31.8481 147.701C32.8035 147.383 34.0774 147.064 35.3513 147.064C36.3067 147.064 37.5806 147.383 38.2176 147.701C39.173 148.02 39.8099 148.657 40.4469 149.294C41.0838 149.931 41.7207 150.886 42.0392 151.523C42.3577 152.478 42.6762 153.434 42.6762 154.389C42.3577 155.345 42.0392 156.619 41.7208 157.574ZM32.8035 153.752H37.2621V153.434C37.2621 152.478 36.9437 151.841 36.6252 151.205C36.3067 150.568 35.6698 150.249 35.0328 150.249C34.3959 150.249 33.759 150.568 33.4405 150.886C33.122 151.842 32.8035 152.478 32.8035 153.752Z"></path>
<path fill="white" d="M58.9172 157.574H50C50 158.529 50.3184 159.485 50.6369 160.122C51.2738 160.759 51.9108 161.077 53.1847 161.077C53.8216 161.077 54.4585 161.077 55.0955 160.759C55.7324 160.44 56.6879 160.44 57.6433 160.122C58.2802 160.759 58.9172 162.033 58.9172 163.306C57.0063 164.58 54.777 165.217 52.2292 165.217C50.6369 165.217 49.6815 164.899 48.4076 164.58C47.4522 164.262 46.4968 163.306 46.1783 162.669C45.5414 161.714 45.2229 160.759 44.9044 159.803C44.5859 158.529 44.5859 157.574 44.5859 155.982C44.5859 154.708 44.9044 153.434 44.9044 152.479C45.2229 151.523 45.5414 150.568 46.4968 149.612C47.1337 148.657 47.7707 148.02 49.0445 147.701C50 147.383 51.2738 147.064 52.5477 147.064C53.8216 147.064 54.777 147.383 55.414 147.701C56.3694 148.02 57.0063 148.657 57.6433 149.294C58.2802 149.931 58.9172 150.886 59.2356 151.523C59.5541 152.478 59.8726 153.434 59.8726 154.389C59.5541 155.345 59.2356 156.619 58.9172 157.574ZM50 153.752H54.4586V153.434C54.4586 152.478 54.1401 151.841 53.8216 151.205C53.5031 150.568 52.8662 150.249 52.2292 150.249C51.5923 150.249 50.9554 150.568 50.6369 150.886C50.3184 151.842 50 152.478 50 153.752Z"></path>
<path fill="white" d="M72.9312 147.064C72.9312 147.701 73.2497 148.338 73.2497 148.975C73.2497 149.612 73.2497 150.249 72.9312 150.886H68.7911V158.848C68.7911 159.803 69.4281 160.44 70.3835 160.44H72.2943C72.6128 161.396 72.6128 162.032 72.6128 162.669C72.6128 163.306 72.6128 163.943 72.6128 164.262C71.0204 164.58 69.4281 164.58 67.8357 164.58C64.9695 164.58 63.3771 162.988 63.3771 159.803V150.886H60.5109C60.1924 150.249 60.1924 149.612 60.1924 148.975C60.1924 148.338 60.1924 147.701 60.5109 147.064H63.3771V145.153C63.3771 143.88 63.6956 143.243 64.0141 142.606C64.3325 141.969 65.2879 141.969 66.2433 141.969H68.4727L68.7911 142.287V147.383L72.9312 147.064Z"></path>
<path fill="white" d="M90.7644 159.803C90.7644 161.396 90.4459 162.669 90.1274 163.306C89.4905 163.943 88.8535 164.58 87.2612 164.58H76.7516C76.4332 164.262 75.7962 163.625 75.4778 162.988C75.1593 162.351 74.8408 161.714 74.8408 161.396C74.8408 160.44 75.1593 159.485 75.7962 158.529C76.4332 157.574 77.3886 156.3 78.6625 155.345L82.4841 151.841C83.758 150.886 84.395 149.612 84.395 148.657C84.395 148.02 84.0765 147.383 83.758 146.746C83.4395 146.427 82.8026 146.109 81.8472 146.109C81.2102 146.109 80.5733 146.427 79.9364 147.064C79.2994 147.701 78.9809 148.338 78.6625 149.294C78.344 149.294 78.0255 149.294 77.3886 149.294C77.0701 149.294 76.7516 148.975 76.4332 148.975C76.1147 148.975 75.7962 148.657 75.4778 148.338C75.1593 148.02 74.8408 148.02 74.8408 147.701C75.1593 146.746 75.4777 146.109 75.7962 145.472C76.1147 144.835 76.7516 144.198 77.3886 143.561C78.0255 142.924 78.6625 142.606 79.6179 142.287C80.5733 141.969 81.5287 141.969 82.4841 141.969C83.4395 141.969 84.3949 142.287 85.3504 142.606C86.3058 142.924 86.9427 143.561 87.5797 143.88C88.2166 144.517 88.8536 145.154 89.172 146.109C89.4905 147.064 89.809 148.02 89.809 148.975C89.809 150.249 89.4905 151.523 88.8535 152.478C88.2166 153.434 87.2612 154.708 85.6688 155.663L83.1211 157.574C81.5287 158.848 80.5733 159.803 80.2548 160.44C81.2102 160.44 82.1657 160.122 83.1211 160.122C84.0765 160.122 84.7134 160.122 85.6688 160.122H90.7644V159.803Z"></path>
<path fill="white" d="M104.778 148.339C105.733 147.384 106.688 147.065 107.962 147.065C108.281 147.384 108.599 147.702 108.918 148.339C109.236 148.976 109.555 149.294 109.555 149.931C108.918 150.25 108.599 151.205 108.599 152.479V161.715C108.599 163.944 108.281 165.537 107.962 167.129C107.644 168.403 107.007 169.677 106.37 170.314C105.733 171.269 104.778 171.587 103.822 171.906C102.867 172.224 101.593 172.543 100.001 172.543C97.7712 172.543 95.5419 172.224 93.6311 171.269C93.6311 170.632 93.6311 169.995 93.9496 169.04C94.268 168.403 94.5865 167.766 94.905 167.129C96.4973 167.766 98.0897 168.084 99.682 168.084C101.911 168.084 103.185 166.81 103.185 164.581V163.307C101.911 164.263 100.637 164.581 99.3636 164.581C97.4527 164.581 95.8604 163.626 94.5865 162.033C93.6311 160.441 92.9941 158.212 92.9941 155.345C92.9941 154.072 93.3126 152.798 93.6311 151.524C93.9495 150.25 94.5865 149.295 95.2234 148.658C95.8604 148.021 96.4973 147.384 97.4527 146.747C98.4082 146.428 99.0451 146.11 100.001 146.11C101.911 146.428 103.504 147.065 104.778 148.339ZM103.504 159.167V151.842C102.548 151.205 101.911 150.568 101.274 150.568C99.682 150.568 99.0451 152.161 99.0451 155.664C99.0451 158.849 99.682 160.122 101.274 160.122C101.911 160.441 102.548 160.123 103.504 159.167Z"></path>
<path fill="white" d="M125.478 148.657C127.07 150.249 128.025 152.797 128.025 155.663C128.025 156.937 127.707 158.211 127.388 159.484C127.07 160.758 126.433 161.714 125.796 162.351C125.159 163.306 124.204 163.625 123.248 164.262C122.293 164.58 121.019 164.899 119.745 164.899C118.471 164.899 117.197 164.58 116.242 164.262C115.286 163.943 114.331 163.306 113.694 162.351C113.057 161.395 112.42 160.44 112.102 159.484C111.783 158.211 111.465 157.255 111.465 155.663C111.465 154.389 111.783 153.115 112.102 151.841C112.42 150.567 113.057 149.612 113.694 148.975C114.331 148.02 115.286 147.383 116.242 147.064C117.197 146.746 118.471 146.427 119.745 146.427C121.974 146.427 123.885 147.383 125.478 148.657ZM119.745 150.567C119.108 150.567 118.79 150.567 118.471 150.886C118.153 151.204 117.834 151.523 117.834 151.841C117.516 152.16 117.516 152.797 117.516 153.434C117.516 154.071 117.516 154.708 117.516 155.026C117.516 155.981 117.516 156.937 117.516 157.574C117.516 158.211 117.834 158.848 117.834 159.484C118.153 160.121 118.153 160.44 118.471 160.44C118.79 160.759 119.108 160.758 119.745 160.758C120.701 160.758 121.337 160.44 121.656 159.484C121.974 158.529 122.293 157.255 122.293 155.663C122.293 154.071 121.974 152.797 121.656 151.841C121.337 151.204 120.701 150.567 119.745 150.567Z"></path>
<path fill="white" d="M130.892 160.122C131.21 159.804 131.847 159.804 132.166 159.804C132.484 159.804 133.121 159.804 133.439 159.804C134.395 159.804 135.35 160.122 136.306 160.441C136.624 161.078 136.624 161.714 136.624 162.67C136.624 162.988 136.624 163.307 136.624 163.944C136.624 164.262 136.306 164.581 136.306 164.899C135.669 165.218 134.713 165.536 133.439 165.536C132.166 165.536 131.529 165.218 130.892 164.899C130.892 164.581 130.573 164.262 130.573 163.944C130.573 163.625 130.573 163.307 130.573 162.67C130.573 161.396 130.573 160.441 130.892 160.122Z"></path>
<path fill="white" d="M149.362 154.707V154.389C149.362 153.115 149.362 152.16 149.043 151.523C148.725 150.886 148.088 150.567 147.451 150.567C146.495 150.567 146.177 150.886 145.858 151.841C145.54 152.797 145.221 154.071 145.221 155.663C145.221 156.618 145.221 157.255 145.54 157.892C145.54 158.529 145.858 159.166 146.177 159.484C146.495 159.803 146.814 160.122 147.132 160.44C147.451 160.759 148.088 160.758 148.406 160.758C149.043 160.758 149.68 160.759 150.317 160.44C150.954 160.122 151.591 159.803 152.546 159.484C152.865 159.484 152.865 159.803 153.183 160.121C153.502 160.44 153.502 160.44 153.82 160.758C154.139 161.077 154.139 161.395 154.457 161.714C154.457 162.032 154.776 162.351 154.776 162.669C154.139 163.625 152.865 164.262 151.909 164.58C150.954 164.899 149.362 165.217 148.088 165.217C145.54 165.217 143.629 164.262 142.355 162.669C141.081 161.077 140.444 158.848 140.444 155.663C140.444 154.071 140.763 152.797 141.081 151.523C141.4 150.249 142.037 149.612 142.674 148.657C143.311 148.02 144.266 147.383 145.221 147.064C146.177 146.746 147.132 146.427 148.088 146.427C149.043 146.427 149.998 146.427 150.954 146.746C151.909 147.064 152.546 147.383 153.183 148.02C153.82 148.657 154.139 149.293 154.457 149.93C154.776 150.567 155.094 151.523 155.094 152.16C155.094 153.115 154.776 153.752 154.139 154.071C153.502 154.389 152.865 154.707 151.909 154.707C150.635 155.026 149.998 155.026 149.362 154.707Z"></path>
<path fill="white" d="M169.426 148.657C171.018 150.249 171.974 152.797 171.974 155.663C171.974 156.937 171.655 158.211 171.337 159.484C171.018 160.758 170.381 161.714 169.744 162.351C169.107 163.306 168.152 163.625 167.197 164.262C166.241 164.58 164.967 164.899 163.693 164.899C162.419 164.899 161.146 164.58 160.19 164.262C159.235 163.943 158.279 163.306 157.642 162.351C157.005 161.395 156.369 160.44 156.05 159.484C155.732 158.211 155.413 157.255 155.413 155.663C155.413 154.389 155.732 153.115 156.05 151.841C156.369 150.567 157.005 149.612 157.642 148.975C158.279 148.02 159.235 147.383 160.19 147.064C161.146 146.746 162.419 146.427 163.693 146.427C166.241 146.746 168.152 147.383 169.426 148.657ZM164.012 150.567C163.375 150.567 163.056 150.567 162.738 150.886C162.419 151.204 162.101 151.523 162.101 151.841C161.783 152.16 161.783 152.797 161.783 153.434C161.783 154.071 161.783 154.707 161.783 155.344C161.783 156.3 161.783 157.255 161.783 157.892C161.783 158.529 162.101 159.166 162.101 159.803C162.419 160.122 162.419 160.758 162.738 160.758C163.056 161.077 163.375 161.077 164.012 161.077C164.967 161.077 165.604 160.758 165.923 159.803C166.241 158.848 166.56 157.574 166.56 155.981C166.56 154.389 166.241 153.115 165.923 152.16C165.604 151.204 164.967 150.567 164.012 150.567Z"></path>
<path fill="white" d="M184.395 154.071C184.395 152.479 183.758 151.842 182.802 151.842C182.484 151.842 182.166 151.842 181.529 152.16C181.21 152.479 180.892 152.797 180.255 153.116V164.581C179.936 164.581 179.299 164.581 178.981 164.581C178.662 164.581 178.025 164.581 177.707 164.581C177.07 164.581 176.752 164.581 176.433 164.581C176.115 164.581 175.478 164.581 175.159 164.581V147.383L175.478 147.065H177.388C178.981 147.065 179.936 147.702 180.255 149.294C181.847 147.702 183.439 147.065 185.032 147.065C186.943 147.065 188.216 148.02 189.172 149.613C191.083 148.02 192.675 147.065 194.267 147.065C195.86 147.065 197.134 147.702 197.771 148.657C198.726 149.613 199.045 150.887 199.045 152.797V160.441C199.045 162.033 199.363 162.988 200 163.944C199.045 164.581 198.089 165.218 196.815 165.218C195.541 165.218 194.904 164.899 194.267 164.262C193.949 163.625 193.631 162.988 193.631 161.715V154.39C193.631 152.797 192.994 152.16 192.038 152.16C191.401 152.16 190.764 152.479 189.809 153.434V164.899C189.49 164.899 188.853 164.899 188.535 164.899C188.216 164.899 187.58 164.899 187.261 164.899C186.624 164.899 186.306 164.899 185.669 164.899C185.35 164.899 184.713 164.899 184.395 164.899V154.071V154.071Z"></path>
</svg>
